<svg xmlns="http://www.w3.org/2000/svg" version="1.1" xmlns:xlink="http://www.w3.org/1999/xlink" width="512" height="512" x="0" y="0" viewBox="0 0 70 70" style="enable-background:new 0 0 512 512" xml:space="preserve" class=""><g><path d="M45.6 30.5v-3.7c0-2.3-1.6-4.2-3.8-4.6l9.6-18.8c.2-.3.1-.7 0-1s-.5-.4-.9-.4H38.4c-.4 0-.8.2-.9.6L35 8.3l-2.4-5.7c-.2-.4-.6-.6-1-.6H19.5c-.3 0-.7.2-.9.5s-.2.7 0 1l9.6 18.8c-2.2.4-3.8 2.3-3.8 4.6v3.7c-5.8 3.6-9.6 9.9-9.6 17.2C14.7 58.9 23.8 68 35 68s20.3-9.1 20.3-20.3c0-7.2-3.9-13.6-9.7-17.2zM39 4h9.9l-9.3 18.2h-8.4zm-8 0 2.9 6.9-4.2 9.9L21.1 4zm-4.6 22.9c0-1.5 1.2-2.7 2.7-2.7h11.8c1.5 0 2.7 1.2 2.7 2.7v2.6c-2.6-1.2-5.5-1.9-8.6-1.9s-6 .7-8.6 1.9zM35 66c-10.1 0-18.3-8.2-18.3-18.3S24.9 29.4 35 29.4s18.3 8.2 18.3 18.3S45.1 66 35 66z" fill="#ffffff" opacity="1" data-original="#000000" class=""></path><path d="M35 32.7c-8.3 0-15 6.7-15 15s6.7 15 15 15 15-6.7 15-15c0-8.2-6.7-15-15-15zm3.1 17.1.6 3.7-3.3-1.7c-.3-.2-.6-.2-.9 0l-3.3 1.7.6-3.7c.1-.3-.1-.7-.3-.9l-2.7-2.6 3.7-.5c.3 0 .6-.3.8-.5l1.7-3.4 1.7 3.4c.1.3.4.5.8.5l3.7.5-2.7 2.6c-.3.3-.4.6-.4.9zm-3.1 11c-7.2 0-13-5.8-13-13 0-6.9 5.3-12.5 12-13v4.6l-2.2 4.5-5.2.8c-.4.1-.7.3-.8.7s0 .8.3 1l3.8 3.7-.9 5.2c-.1.4.1.8.4 1 .2.1.4.2.6.2s.3 0 .5-.1l4.6-2.4 4.6 2.4c.3.2.7.1 1.1-.1.3-.2.5-.6.4-1l-1-5.3 3.8-3.7c.3-.3.4-.7.3-1-.1-.4-.4-.6-.8-.7l-5.2-.8-2.3-4.5v-4.6c6.7.5 12 6.1 12 13 0 7.2-5.8 13.1-13 13.1z" fill="#ffffff" opacity="1" data-original="#000000" class=""></path></g></svg>
